<svg id="Capa_1" enable-background="new 0 0 512 512" height="512" viewBox="0 0 512 512" width="512" xmlns="http://www.w3.org/2000/svg"><g><path d="m483.781 51.831h-402.883c-4.143 0-7.5 3.357-7.5 7.5s3.357 7.5 7.5 7.5h402.883c7.289 0 13.219 5.931 13.219 13.22v26.224h-482v-26.225c0-7.289 5.931-13.22 13.22-13.22h22.691c4.143 0 7.5-3.357 7.5-7.5s-3.357-7.5-7.5-7.5h-22.691c-15.561.001-28.22 12.66-28.22 28.22v351.9c0 15.56 12.659 28.219 28.22 28.219h352.569c4.143 0 7.5-3.357 7.5-7.5s-3.357-7.5-7.5-7.5h-352.569c-7.289 0-13.22-5.93-13.22-13.219v-310.676h482v310.677c0 7.289-5.93 13.219-13.219 13.219h-73.005c-4.143 0-7.5 3.357-7.5 7.5s3.357 7.5 7.5 7.5h73.005c15.56 0 28.219-12.659 28.219-28.219v-351.901c0-15.56-12.659-28.219-28.219-28.219z"/><path d="m52.459 79.052h-6.312c-4.143 0-7.5 3.357-7.5 7.5s3.357 7.5 7.5 7.5h6.312c4.143 0 7.5-3.357 7.5-7.5s-3.357-7.5-7.5-7.5z"/><path d="m91.629 94.052c4.143 0 7.5-3.357 7.5-7.5s-3.357-7.5-7.5-7.5h-6.312c-4.143 0-7.5 3.357-7.5 7.5s3.357 7.5 7.5 7.5z"/><path d="m130.8 94.052c4.143 0 7.5-3.357 7.5-7.5s-3.357-7.5-7.5-7.5h-6.312c-4.143 0-7.5 3.357-7.5 7.5s3.357 7.5 7.5 7.5z"/><path d="m210.634 154.595h-126.637c-8.495 0-15.406 6.911-15.406 15.406v51.594.072 34.266c0 8.495 6.911 15.406 15.406 15.406h126.637c8.495 0 15.407-6.911 15.407-15.406v-85.932c0-8.495-6.912-15.406-15.407-15.406zm-126.637 15h126.637c.225 0 .407.183.407.406v44.523l-21.192-9.865c-3.127-1.456-6.699-1.419-9.797.102l-35.652 17.502-26.218-19.976c-3.2-2.437-7.497-2.998-11.217-1.464l-23.374 9.651v-40.474c0-.222.182-.405.406-.405zm126.637 86.744h-126.637c-.224 0-.406-.183-.406-.406v-29.229l27.165-11.217 26.346 20.074c2.026 1.543 4.437 2.332 6.869 2.332 1.703 0 3.417-.387 5.018-1.173l36.109-17.727 25.943 12.078v24.862c0 .224-.183.406-.407.406z"/><path d="m101.575 189.649h2.914c4.143 0 7.5-3.357 7.5-7.5s-3.357-7.5-7.5-7.5h-2.914c-4.143 0-7.5 3.357-7.5 7.5s3.358 7.5 7.5 7.5z"/><path d="m318.944 174.649c-4.143 0-7.5 3.357-7.5 7.5s3.357 7.5 7.5 7.5h2.915c4.143 0 7.5-3.357 7.5-7.5s-3.357-7.5-7.5-7.5z"/><path d="m122.66 318.366c0-14.907-12.128-27.035-27.035-27.035-14.906 0-27.034 12.128-27.034 27.035 0 14.906 12.128 27.034 27.034 27.034 14.907 0 27.035-12.128 27.035-27.034zm-27.035 12.034c-6.636 0-12.034-5.398-12.034-12.034s5.398-12.035 12.034-12.035 12.035 5.399 12.035 12.035-5.399 12.034-12.035 12.034z"/><path d="m134.863 306.331h44.687c4.143 0 7.5-3.357 7.5-7.5s-3.357-7.5-7.5-7.5h-44.687c-4.143 0-7.5 3.357-7.5 7.5s3.358 7.5 7.5 7.5z"/><path d="m134.863 333.158h83.678c4.143 0 7.5-3.357 7.5-7.5s-3.357-7.5-7.5-7.5h-83.678c-4.143 0-7.5 3.357-7.5 7.5s3.358 7.5 7.5 7.5z"/><path d="m285.96 318.366c0 14.906 12.128 27.034 27.035 27.034 14.906 0 27.034-12.128 27.034-27.034 0-14.907-12.128-27.035-27.034-27.035-14.907 0-27.035 12.127-27.035 27.035zm39.069 0c0 6.636-5.398 12.034-12.034 12.034s-12.035-5.398-12.035-12.034 5.399-12.035 12.035-12.035 12.034 5.399 12.034 12.035z"/><path d="m352.232 306.331h44.687c4.143 0 7.5-3.357 7.5-7.5s-3.357-7.5-7.5-7.5h-44.687c-4.143 0-7.5 3.357-7.5 7.5s3.358 7.5 7.5 7.5z"/><path d="m352.232 333.158h83.678c4.143 0 7.5-3.357 7.5-7.5s-3.357-7.5-7.5-7.5h-83.678c-4.143 0-7.5 3.357-7.5 7.5s3.358 7.5 7.5 7.5z"/><path d="m108.591 370.449c0 4.143 3.357 7.5 7.5 7.5h279.819c4.143 0 7.5-3.357 7.5-7.5s-3.357-7.5-7.5-7.5h-279.819c-4.143 0-7.5 3.357-7.5 7.5z"/><path d="m76.091 413.025h359.819c4.143 0 7.5-3.357 7.5-7.5s-3.357-7.5-7.5-7.5h-359.819c-4.143 0-7.5 3.357-7.5 7.5s3.357 7.5 7.5 7.5z"/><path d="m367.083 162.095c0-4.143-3.357-7.5-7.5-7.5h-58.217c-8.495 0-15.406 6.911-15.406 15.406v51.594.072 34.266c0 8.495 6.911 15.406 15.406 15.406h126.637c8.495 0 15.407-6.911 15.407-15.406v-85.932c0-8.495-6.912-15.406-15.407-15.406h-38.434c-4.143 0-7.5 3.357-7.5 7.5s3.357 7.5 7.5 7.5h38.434c.225 0 .407.183.407.406v44.523l-21.192-9.865c-3.126-1.454-6.695-1.42-9.796.102l-35.653 17.502-26.218-19.976c-3.198-2.437-7.496-2.999-11.217-1.464l-23.374 9.651v-40.474c0-.224.183-.406.406-.406h58.217c4.143.001 7.5-3.356 7.5-7.499zm-38.958 53.392 26.345 20.072c2.026 1.545 4.438 2.335 6.87 2.335 1.703 0 3.418-.388 5.018-1.174l36.11-17.727 25.942 12.078v24.862c0 .224-.183.406-.407.406h-126.637c-.224 0-.406-.183-.406-.406v-29.229z"/></g></svg>